<svg width="14" height="14" viewBox="0 0 14 14" fill="none" xmlns="http://www.w3.org/2000/svg">
<path d="M12.5595 4.24703L5.55953 11.247C5.5189 11.2877 5.47065 11.32 5.41754 11.342C5.36442 11.364 5.30749 11.3753 5.25 11.3753C5.1925 11.3753 5.13557 11.364 5.08246 11.342C5.02935 11.32 4.9811 11.2877 4.94047 11.247L1.87797 8.18453C1.79588 8.10244 1.74976 7.9911 1.74976 7.875C1.74976 7.7589 1.79588 7.64756 1.87797 7.56547C1.96006 7.48337 2.0714 7.43726 2.1875 7.43726C2.3036 7.43726 2.41494 7.48337 2.49703 7.56547L5.25 10.319L11.9405 3.62797C12.0226 3.54587 12.1339 3.49976 12.25 3.49976C12.3661 3.49976 12.4774 3.54587 12.5595 3.62797C12.6416 3.71006 12.6877 3.8214 12.6877 3.9375C12.6877 4.0536 12.6416 4.16494 12.5595 4.24703Z" fill="white"/>
</svg>
