<svg width="39" height="39" viewBox="0 0 39 39" fill="none" xmlns="http://www.w3.org/2000/svg">
<path d="M26.456 14.9815C26.5693 15.0947 26.6592 15.2291 26.7206 15.377C26.7819 15.525 26.8135 15.6836 26.8135 15.8438C26.8135 16.0039 26.7819 16.1625 26.7206 16.3105C26.6592 16.4584 26.5693 16.5928 26.456 16.706L17.9248 25.2373C17.8116 25.3506 17.6772 25.4405 17.5292 25.5018C17.3813 25.5631 17.2227 25.5947 17.0625 25.5947C16.9023 25.5947 16.7437 25.5631 16.5958 25.5018C16.4478 25.4405 16.3134 25.3506 16.2002 25.2373L12.544 21.581C12.3153 21.3523 12.1868 21.0422 12.1868 20.7188C12.1868 20.3953 12.3153 20.0852 12.544 19.8565C12.7727 19.6278 13.0828 19.4993 13.4062 19.4993C13.7297 19.4993 14.0398 19.6278 14.2685 19.8565L17.0625 22.652L24.7315 14.9815C24.8447 14.8682 24.9791 14.7783 25.127 14.7169C25.275 14.6556 25.4336 14.624 25.5938 14.624C25.7539 14.624 25.9125 14.6556 26.0605 14.7169C26.2084 14.7783 26.3428 14.8682 26.456 14.9815ZM34.125 7.3125V31.6875C34.125 32.334 33.8682 32.954 33.4111 33.4111C32.954 33.8682 32.334 34.125 31.6875 34.125H7.3125C6.66603 34.125 6.04605 33.8682 5.58893 33.4111C5.13181 32.954 4.875 32.334 4.875 31.6875V7.3125C4.875 6.66603 5.13181 6.04605 5.58893 5.58893C6.04605 5.13181 6.66603 4.875 7.3125 4.875H31.6875C32.334 4.875 32.954 5.13181 33.4111 5.58893C33.8682 6.04605 34.125 6.66603 34.125 7.3125ZM31.6875 31.6875V7.3125H7.3125V31.6875H31.6875Z" fill="#004BA8"/>
</svg>
