<svg width="15" height="15" viewBox="0 0 15 15" fill="none" xmlns="http://www.w3.org/2000/svg">
<path d="M13.3195 4.29902L10.701 1.68105C10.6139 1.59397 10.5106 1.5249 10.3968 1.47777C10.2831 1.43064 10.1611 1.40639 10.038 1.40639C9.91486 1.40639 9.79293 1.43064 9.67918 1.47777C9.56542 1.5249 9.46206 1.59397 9.375 1.68105L2.14981 8.90625C2.06238 8.99299 1.99306 9.09624 1.94588 9.21001C1.8987 9.32377 1.87461 9.44578 1.875 9.56894V12.1875C1.875 12.4361 1.97378 12.6746 2.14959 12.8504C2.32541 13.0262 2.56386 13.125 2.8125 13.125H12.6563C12.7806 13.125 12.8998 13.0756 12.9877 12.9877C13.0756 12.8998 13.125 12.7806 13.125 12.6562C13.125 12.5319 13.0756 12.4127 12.9877 12.3248C12.8998 12.2369 12.7806 12.1875 12.6563 12.1875H6.75704L13.3195 5.625C13.4066 5.53794 13.4757 5.43458 13.5228 5.32082C13.5699 5.20707 13.5942 5.08514 13.5942 4.96201C13.5942 4.83888 13.5699 4.71695 13.5228 4.60319C13.4757 4.48944 13.4066 4.38608 13.3195 4.29902ZM5.43106 12.1875H2.8125V9.56894L7.96875 4.41269L10.5873 7.03125L5.43106 12.1875ZM11.25 6.36855L8.63204 3.75L10.0383 2.34375L12.6563 4.9623L11.25 6.36855Z" fill="white"/>
</svg>
