<svg width="38" height="29" viewBox="0 0 38 29" fill="none" xmlns="http://www.w3.org/2000/svg">
<path d="M37.5 14.0625C37.5 14.4769 37.3354 14.8743 37.0424 15.1674C36.7493 15.4604 36.3519 15.625 35.9375 15.625H1.5625C1.1481 15.625 0.750672 15.4604 0.457646 15.1674C0.16462 14.8743 0 14.4769 0 14.0625C0 13.6481 0.16462 13.2507 0.457646 12.9576C0.750672 12.6646 1.1481 12.5 1.5625 12.5H35.9375C36.3519 12.5 36.7493 12.6646 37.0424 12.9576C37.3354 13.2507 37.5 13.6481 37.5 14.0625ZM1.5625 3.125H35.9375C36.3519 3.125 36.7493 2.96038 37.0424 2.66735C37.3354 2.37433 37.5 1.9769 37.5 1.5625C37.5 1.1481 37.3354 0.750672 37.0424 0.457646C36.7493 0.16462 36.3519 0 35.9375 0H1.5625C1.1481 0 0.750672 0.16462 0.457646 0.457646C0.16462 0.750672 0 1.1481 0 1.5625C0 1.9769 0.16462 2.37433 0.457646 2.66735C0.750672 2.96038 1.1481 3.125 1.5625 3.125ZM35.9375 25H1.5625C1.1481 25 0.750672 25.1646 0.457646 25.4576C0.16462 25.7507 0 26.1481 0 26.5625C0 26.9769 0.16462 27.3743 0.457646 27.6674C0.750672 27.9604 1.1481 28.125 1.5625 28.125H35.9375C36.3519 28.125 36.7493 27.9604 37.0424 27.6674C37.3354 27.3743 37.5 26.9769 37.5 26.5625C37.5 26.1481 37.3354 25.7507 37.0424 25.4576C36.7493 25.1646 36.3519 25 35.9375 25Z" fill="#004BA8"/>
</svg>
