<svg width="15" height="15" viewBox="0 0 15 15" fill="none" xmlns="http://www.w3.org/2000/svg">
<path d="M12.6562 2.8125H10.3125V2.34375C10.3125 1.97079 10.1643 1.6131 9.90062 1.34938C9.6369 1.08566 9.27921 0.9375 8.90625 0.9375H6.09375C5.72079 0.9375 5.3631 1.08566 5.09938 1.34938C4.83566 1.6131 4.6875 1.97079 4.6875 2.34375V2.8125H2.34375C2.21943 2.8125 2.1002 2.86189 2.01229 2.94979C1.92439 3.0377 1.875 3.15693 1.875 3.28125C1.875 3.40557 1.92439 3.5248 2.01229 3.61271C2.1002 3.70061 2.21943 3.75 2.34375 3.75H2.8125V12.1875C2.8125 12.4361 2.91127 12.6746 3.08709 12.8504C3.2629 13.0262 3.50136 13.125 3.75 13.125H11.25C11.4986 13.125 11.7371 13.0262 11.9129 12.8504C12.0887 12.6746 12.1875 12.4361 12.1875 12.1875V3.75H12.6562C12.7806 3.75 12.8998 3.70061 12.9877 3.61271C13.0756 3.5248 13.125 3.40557 13.125 3.28125C13.125 3.15693 13.0756 3.0377 12.9877 2.94979C12.8998 2.86189 12.7806 2.8125 12.6562 2.8125ZM5.625 2.34375C5.625 2.21943 5.67439 2.1002 5.76229 2.01229C5.8502 1.92439 5.96943 1.875 6.09375 1.875H8.90625C9.03057 1.875 9.1498 1.92439 9.23771 2.01229C9.32561 2.1002 9.375 2.21943 9.375 2.34375V2.8125H5.625V2.34375ZM11.25 12.1875H3.75V3.75H11.25V12.1875ZM6.5625 6.09375V9.84375C6.5625 9.96807 6.51311 10.0873 6.42521 10.1752C6.3373 10.2631 6.21807 10.3125 6.09375 10.3125C5.96943 10.3125 5.8502 10.2631 5.76229 10.1752C5.67439 10.0873 5.625 9.96807 5.625 9.84375V6.09375C5.625 5.96943 5.67439 5.8502 5.76229 5.76229C5.8502 5.67439 5.96943 5.625 6.09375 5.625C6.21807 5.625 6.3373 5.67439 6.42521 5.76229C6.51311 5.8502 6.5625 5.96943 6.5625 6.09375ZM9.375 6.09375V9.84375C9.375 9.96807 9.32561 10.0873 9.23771 10.1752C9.1498 10.2631 9.03057 10.3125 8.90625 10.3125C8.78193 10.3125 8.6627 10.2631 8.57479 10.1752C8.48689 10.0873 8.4375 9.96807 8.4375 9.84375V6.09375C8.4375 5.96943 8.48689 5.8502 8.57479 5.76229C8.6627 5.67439 8.78193 5.625 8.90625 5.625C9.03057 5.625 9.1498 5.67439 9.23771 5.76229C9.32561 5.8502 9.375 5.96943 9.375 6.09375Z" fill="white"/>
</svg>
