<svg width="38" height="38" viewBox="0 0 38 38" fill="none" xmlns="http://www.w3.org/2000/svg">
<path d="M30.5276 28.8473C30.638 28.9577 30.7255 29.0886 30.7852 29.2328C30.8449 29.3769 30.8756 29.5315 30.8756 29.6875C30.8756 29.8435 30.8449 29.998 30.7852 30.1422C30.7255 30.2863 30.638 30.4173 30.5276 30.5276C30.4173 30.638 30.2863 30.7255 30.1422 30.7852C29.998 30.8449 29.8435 30.8756 29.6875 30.8756C29.5315 30.8756 29.3769 30.8449 29.2328 30.7852C29.0886 30.7255 28.9577 30.638 28.8473 30.5276L19 20.6788L9.15264 30.5276C8.92982 30.7505 8.62761 30.8756 8.31249 30.8756C7.99737 30.8756 7.69516 30.7505 7.47233 30.5276C7.24951 30.3048 7.12433 30.0026 7.12433 29.6875C7.12433 29.3724 7.24951 29.0702 7.47233 28.8473L17.3212 19L7.47233 9.15264C7.24951 8.92982 7.12433 8.62761 7.12433 8.31249C7.12433 7.99737 7.24951 7.69516 7.47233 7.47233C7.69516 7.24951 7.99737 7.12433 8.31249 7.12433C8.62761 7.12433 8.92982 7.24951 9.15264 7.47233L19 17.3212L28.8473 7.47233C29.0702 7.24951 29.3724 7.12433 29.6875 7.12433C30.0026 7.12433 30.3048 7.24951 30.5276 7.47233C30.7505 7.69516 30.8756 7.99737 30.8756 8.31249C30.8756 8.62761 30.7505 8.92982 30.5276 9.15264L20.6788 19L30.5276 28.8473Z" fill="#75B3FF"/>
</svg>
